<?xml version="1.0" encoding="UTF-8"?>
<svg version="1.1" xmlns="http://www.w3.org/2000/svg" width="503" height="496">
<path d="M0 0 C2.87116989 0 4.01944964 1.01566777 6.25 2.8125 C12.33433363 7.65231085 17.92315854 9.73319026 25.6875 9.625 C26.46625488 9.62242187 27.24500977 9.61984375 28.04736328 9.6171875 C34.74253278 9.39726816 39.5315478 7.58704309 45.3984375 4.3125 C48 3 48 3 52 3 C52.04652964 10.92834458 52.08197329 18.85663123 52.10362434 26.785079 C52.11402058 30.46736443 52.12810285 34.1495558 52.15087891 37.83178711 C52.17275687 41.39147415 52.18459984 44.95107125 52.18975449 48.51082039 C52.19519796 50.51639398 52.21078654 52.52193187 52.22659302 54.52745056 C52.22856916 70.75666566 47.49519615 84.19359719 36 96 C28.09717799 102.97170896 12.32621674 115.3784644 1.25 114.875 C-3.0887333 113.7068795 -6.97191679 111.97362605 -11 110 C-11.68835938 109.67386719 -12.37671875 109.34773438 -13.0859375 109.01171875 C-27.46222526 101.66324452 -40.18869953 90.32267988 -46 75 C-48.24484393 67.0225544 -48.25945371 59.36255745 -48.1953125 51.12109375 C-48.1915749 49.69906311 -48.18873146 48.27702988 -48.18673706 46.85499573 C-48.17915931 43.14127287 -48.15956239 39.42771046 -48.1373291 35.71405029 C-48.11674326 31.91290455 -48.10770831 28.11173248 -48.09765625 24.31054688 C-48.07630995 16.87362537 -48.04224631 9.4368353 -48 2 C-44.36417117 2.81596957 -41.5948146 4.2847547 -38.3125 6.0625 C-29.57646766 10.13537994 -20.10880006 10.92314076 -10.8359375 8.00390625 C-7.17939304 6.27271042 -4.48829016 4.48829016 -1.625 1.625 C-1.08875 1.08875 -0.5525 0.5525 0 0 Z M-20 31 C-20.42667969 31.52464844 -20.85335937 32.04929687 -21.29296875 32.58984375 C-26.87082639 39.80343677 -29.70109436 48.25196674 -28.75 57.40625 C-26.27638682 71.3644958 -20.58645878 82.93897027 -8.8125 91.25 C-3.83508556 93.90101421 1.55178481 94.55120168 7.1015625 93.6640625 C16.09579945 90.90487427 22.37761359 83.41356217 26.78515625 75.453125 C31.86850742 65.18835157 33.62427069 54.4658429 30.8125 43.2578125 C27.79046131 34.8600319 21.35579798 27.92449066 13.58203125 23.6796875 C1.89790259 18.49881805 -11.72291076 20.46552279 -20 31 Z " fill="#F6A9D5" transform="translate(102,194)"/>
<path d="M0 0 C1.55654297 -0.07347656 1.55654297 -0.07347656 3.14453125 -0.1484375 C7.25881347 0.55928242 8.47607355 2.25175528 11.1875 5.375 C12.6730957 8.3293457 12.6730957 8.3293457 13.86328125 11.55078125 C14.29833984 12.70771484 14.73339844 13.86464844 15.18164062 15.05664062 C15.61669922 16.25482422 16.05175781 17.45300781 16.5 18.6875 C16.95439453 19.90501953 17.40878906 21.12253906 17.87695312 22.37695312 C18.99275375 25.37199692 20.09573267 28.37113012 21.1875 31.375 C21.1968457 30.57803711 21.20619141 29.78107422 21.21582031 28.95996094 C21.26951498 25.34767825 21.35316608 21.73669179 21.4375 18.125 C21.45167969 16.87074219 21.46585938 15.61648437 21.48046875 14.32421875 C21.51269531 13.11894531 21.54492188 11.91367188 21.578125 10.671875 C21.59907227 9.56166992 21.62001953 8.45146484 21.64160156 7.30761719 C22.30616463 3.73752255 23.30232782 2.52759382 26.1875 0.375 C30.58953429 -0.08837203 32.4669164 -0.10538907 36.1875 2.375 C37.15858705 5.28826115 37.32472438 7.19199571 37.34863281 10.22607422 C37.35824036 11.21074677 37.3678479 12.19541931 37.37774658 13.20993042 C37.38199646 14.27245026 37.38624634 15.33497009 37.390625 16.4296875 C37.39632507 17.52338654 37.40202515 18.61708557 37.40789795 19.743927 C37.41734787 22.05892977 37.4238819 24.37394599 37.42773438 26.68896484 C37.43744263 30.22907984 37.46846783 33.76861497 37.5 37.30859375 C37.50652986 39.55728822 37.5117804 41.80598684 37.515625 44.0546875 C37.5279718 45.11315887 37.5403186 46.17163025 37.55303955 47.26217651 C37.5250137 56.51644414 37.5250137 56.51644414 34.1875 60.375 C31.66625435 61.63562282 29.75394758 61.64996224 26.9375 61.75 C26.00421875 61.79898438 25.0709375 61.84796875 24.109375 61.8984375 C20.10054549 61.1802782 17.67326151 59.50479167 15.1875 56.375 C13.58120393 53.14452835 12.50011621 49.81727786 11.4375 46.375 C10.85998902 44.60396633 10.28188213 42.83312684 9.703125 41.0625 C9.45852539 40.28261719 9.21392578 39.50273437 8.96191406 38.69921875 C8.13370496 36.21354704 7.1815874 33.7985572 6.1875 31.375 C6.16768066 32.0455542 6.14786133 32.7161084 6.12744141 33.40698242 C6.03190285 36.45920161 5.92234055 39.51076341 5.8125 42.5625 C5.76609375 44.14514648 5.76609375 44.14514648 5.71875 45.75976562 C5.68007812 46.78134766 5.64140625 47.80292969 5.6015625 48.85546875 C5.55443115 50.26155396 5.55443115 50.26155396 5.50634766 51.69604492 C5.16015265 54.60477216 4.51660595 56.76623152 3.1875 59.375 C-0.33074511 61.72049674 -1.67025694 61.95491403 -5.8125 61.375 C-8.81273991 59.31605505 -10.56009232 57.67872288 -11.26782227 54.02319336 C-11.44247258 51.04560553 -11.45272168 48.10740863 -11.40625 45.125 C-11.40631042 43.48869629 -11.40631042 43.48869629 -11.40637207 41.81933594 C-11.4010179 39.51621734 -11.38343979 37.21309915 -11.35449219 34.91015625 C-11.31264791 31.38745205 -11.31342413 27.86666077 -11.3203125 24.34375 C-11.3098194 22.1041534 -11.29688065 19.86456664 -11.28125 17.625 C-11.28104858 16.57280273 -11.28084717 15.52060547 -11.28063965 14.43652344 C-11.13205484 5.2430737 -11.13205484 5.2430737 -7.8125 1.375 C-5.14693537 0.04221768 -2.97603002 0.0954091 0 0 Z " fill="#FCABD6" transform="translate(179.8125,218.625)"/>
<path d="M0 0 C2.3046875 1.0234375 2.3046875 1.0234375 4 2 C4.66 1.34 5.32 0.68 6 0 C9.03758326 -0.4956967 11.95837962 -0.4576383 15 0 C17.67568498 2.34122436 18.32362592 4.59453945 19 8 C19.22900794 12.64289545 19.18515846 17.2895345 19.1875 21.9375 C19.19974609 23.21302734 19.21199219 24.48855469 19.22460938 25.80273438 C19.22654297 27.03185547 19.22847656 28.26097656 19.23046875 29.52734375 C19.23457764 30.64874756 19.23868652 31.77015137 19.24291992 32.92553711 C18.92269284 36.97842117 18.09408645 39.86683904 15.25 42.8125 C12.26473971 44.38805404 10.3345548 44.41681935 7 44 C4.625 42.5 4.625 42.5 3 41 C2.319375 41.495 1.63875 41.99 0.9375 42.5 C-2.74140375 44.37858915 -4.9091225 44.50238846 -9 44 C-14.27845097 41.25926584 -16.41561209 38.16877582 -19 33 C-19.26894921 29.25590102 -19.23162708 25.50266943 -19.25 21.75 C-19.270625 20.71230469 -19.29125 19.67460937 -19.3125 18.60546875 C-19.34114529 12.99815325 -19.26518993 8.79308165 -16 4 C-11.15727407 -0.48838013 -6.32428987 -0.89750648 0 0 Z M-2 13 C-3.41774838 14.18852855 -3.41774838 14.18852855 -3.09765625 17.59765625 C-3.0909822 19.08596867 -3.07902183 20.57426432 -3.0625 22.0625 C-3.05798828 22.82111328 -3.05347656 23.57972656 -3.04882812 24.36132812 C-3.0370068 26.24091871 -3.01907078 28.12046899 -3 30 C-1.68 30 -0.36 30 1 30 C3.00441422 25.86589566 3.40848636 22.57504719 3 18 C1.77401355 15.09075658 1.77401355 15.09075658 0 13 C-0.66 13 -1.32 13 -2 13 Z " fill="#F9AAD6" transform="translate(427,236)"/>
<path d="M0 0 C2.33984375 1.0234375 2.33984375 1.0234375 4 2 C4.66 1.34 5.32 0.68 6 0 C8.05859375 -0.3359375 8.05859375 -0.3359375 10.4375 -0.375 C11.61119141 -0.41753906 11.61119141 -0.41753906 12.80859375 -0.4609375 C15 0 15 0 16.60766602 1.53686523 C18.52327087 4.92570222 18.46770227 8.07766446 18.46875 11.87109375 C18.48017029 13.01010887 18.48017029 13.01010887 18.49182129 14.1721344 C18.50260565 15.77496052 18.50548213 17.37785682 18.50097656 18.98071289 C18.50000438 21.42649097 18.54163367 23.86912802 18.5859375 26.31445312 C18.59114514 27.87499348 18.59383268 29.4355447 18.59375 30.99609375 C18.6183429 32.0869352 18.6183429 32.0869352 18.64343262 33.19981384 C18.59026302 37.12771816 18.11808523 38.85053762 15.65429688 41.96899414 C13 44 13 44 9.9375 44.5 C6.77961005 43.96248682 5.32893595 43.14978703 3 41 C2.319375 41.495 1.63875 41.99 0.9375 42.5 C-2.75892795 44.38753767 -4.8849384 44.49664537 -9 44 C-12.9048217 42.57787358 -15.27652013 41.03306196 -17.6796875 37.6015625 C-19.59028868 32.38980426 -19.43484561 27.50579616 -19.375 22 C-19.38660156 20.93265625 -19.39820313 19.8653125 -19.41015625 18.765625 C-19.3839586 11.74465542 -18.63883253 7.13361363 -14 1.625 C-9.49798739 -0.81359016 -5.02105829 -0.64353355 0 0 Z M-3 13 C-3 18.61 -3 24.22 -3 30 C-1.68 30 -0.36 30 1 30 C2.35550385 27.2889923 2.16917207 25.08660831 2.1875 22.0625 C2.20167969 21.00160156 2.21585938 19.94070312 2.23046875 18.84765625 C2.21565067 15.79722331 2.21565067 15.79722331 0 13 C-0.99 13 -1.98 13 -3 13 Z " fill="#F7A9D5" transform="translate(242,236)"/>
<path d="M0 0 C3.32899307 4.22030412 2.63692804 9.52402779 2.59375 14.640625 C2.36171875 16.14882813 2.36171875 16.14882813 2.125 17.6875 C-1.02814785 19.78959857 -1.73603081 19.9309761 -5.32421875 19.8828125 C-6.59555664 19.87314453 -6.59555664 19.87314453 -7.89257812 19.86328125 C-8.77365234 19.84652344 -9.65472656 19.82976562 -10.5625 19.8125 C-11.45517578 19.80347656 -12.34785156 19.79445313 -13.26757812 19.78515625 C-15.47032314 19.76159748 -17.67252588 19.72870329 -19.875 19.6875 C-19.215 21.6675 -18.555 23.6475 -17.875 25.6875 C-15.01082668 25.28969815 -13.25152856 25.0012738 -11 23.125 C-7.84956718 20.99382486 -5.58615923 21.2236051 -1.875 21.6875 C0.625 23.3125 0.625 23.3125 2.125 25.6875 C2.125 29.13685713 1.57347744 31.0334704 -0.375 33.875 C-5.97015801 37.93148956 -12.45950588 39.33033262 -19.3125 39.10546875 C-25.12829022 38.15685663 -30.3346744 35.69459093 -33.9375 31 C-34.246875 30.236875 -34.55625 29.47375 -34.875 28.6875 C-35.205 28.0275 -35.535 27.3675 -35.875 26.6875 C-36.14104662 23.464708 -36.10659402 20.23254978 -36.125 17 C-36.145625 16.11376953 -36.16625 15.22753906 -36.1875 14.31445312 C-36.22740094 7.57618156 -35.49387847 2.45602867 -30.6875 -2.625 C-20.6776003 -8.63093982 -8.89650354 -7.15588328 0 0 Z M-18.875 5.6875 C-19.205 7.3375 -19.535 8.9875 -19.875 10.6875 C-17.565 10.6875 -15.255 10.6875 -12.875 10.6875 C-13.535 9.0375 -14.195 7.3875 -14.875 5.6875 C-16.195 5.6875 -17.515 5.6875 -18.875 5.6875 Z " fill="#F9AAD6" transform="translate(336.875,241.3125)"/>
<path d="M0 0 C2.4511803 1.32496232 3.70059962 2.11346381 4.6015625 4.78125 C5.05656266 7.31497636 5.09635512 9.67701111 5.0625 12.25 C5.05347656 13.14203125 5.04445313 14.0340625 5.03515625 14.953125 C5.02355469 15.62859375 5.01195312 16.3040625 5 17 C6.11375 16.938125 7.2275 16.87625 8.375 16.8125 C10.169375 16.9053125 10.169375 16.9053125 12 17 C14.47666082 20.71499122 14.54886514 22.60907888 14 27 C10.78102913 29.77189158 9.3064427 30 5 30 C5 35.28 5 40.56 5 46 C6.9490625 46.185625 6.9490625 46.185625 8.9375 46.375 C11.15234375 46.5859375 11.15234375 46.5859375 13 47 C14.56430248 50.12860495 14.35627284 52.55602925 14 56 C10.48510921 59.51489079 7.66546116 61.15366707 2.75 61.3125 C-1.89750989 61.25272495 -4.4517073 60.1258769 -8 57 C-12.12442389 52.16379611 -11.33728301 46.69034225 -11.1875 40.6875 C-11.16719727 39.14739258 -11.16719727 39.14739258 -11.14648438 37.57617188 C-11.11123883 35.05024091 -11.061967 32.5253934 -11 30 C-11.95003906 29.86980469 -12.90007812 29.73960937 -13.87890625 29.60546875 C-17 29 -17 29 -18.9375 27.3125 C-20.38550221 24.16096578 -19.929926 22.29050737 -19 19 C-16.64046906 16.64046906 -15.22104383 16.50858587 -12 16 C-11.95101563 15.16855469 -11.90203125 14.33710938 -11.8515625 13.48046875 C-11.77679688 12.39378906 -11.70203125 11.30710938 -11.625 10.1875 C-11.55539062 9.10855469 -11.48578125 8.02960938 -11.4140625 6.91796875 C-11 4 -11 4 -9 1 C-5.70952793 -0.09682402 -3.44927034 -0.28157309 0 0 Z " fill="#F8AAD5" transform="translate(283,219)"/>
<path d="M0 0 C6.27726845 4.39408792 7.34257372 10.81822616 8.6875 18 C8.82994141 18.69867188 8.97238281 19.39734375 9.11914062 20.1171875 C9.86219588 24.03578733 10.12033404 27.15026155 9 31 C8.34 30.01 7.68 29.02 7 28 C6.01 31.465 6.01 31.465 5 35 C4.67 34.34 4.34 33.68 4 33 C3.34 33 2.68 33 2 33 C1.566875 31.6078125 1.566875 31.6078125 1.125 30.1875 C0.1125 26.90208333 0.1125 26.90208333 -2 24 C-2.02505615 24.89831543 -2.0501123 25.79663086 -2.07592773 26.72216797 C-2.17098693 30.05074869 -2.27022421 33.37914994 -2.37231445 36.70751953 C-2.41566231 38.1488762 -2.45733752 39.59028418 -2.49731445 41.03173828 C-2.55502088 43.10204541 -2.61871371 45.17209432 -2.68359375 47.2421875 C-2.73858032 49.11173096 -2.73858032 49.11173096 -2.79467773 51.01904297 C-3 54 -3 54 -4 56 C-4.66 56 -5.32 56 -6 56 C-6 56.99 -6 57.98 -6 59 C-9.96 58.505 -9.96 58.505 -14 58 C-15.00078657 54.9976403 -15.13806105 52.96448684 -15.16113281 49.82592773 C-15.17074036 48.77150986 -15.1803479 47.71709198 -15.19024658 46.63072205 C-15.19449646 45.49316971 -15.19874634 44.35561737 -15.203125 43.18359375 C-15.20882507 42.01619156 -15.21452515 40.84878937 -15.22039795 39.64601135 C-15.22984706 37.17718411 -15.23638157 34.70834427 -15.24023438 32.23950195 C-15.24997005 28.44916087 -15.28100714 24.65935509 -15.3125 20.86914062 C-15.31902695 18.47396156 -15.32427863 16.07877862 -15.328125 13.68359375 C-15.3404718 12.54401718 -15.3528186 11.40444061 -15.36553955 10.23033142 C-15.36253845 9.1790657 -15.35953735 8.12779999 -15.35644531 7.04467773 C-15.36009094 6.11662827 -15.36373657 5.1885788 -15.36749268 4.23240662 C-15.24622009 3.49571243 -15.12494751 2.75901825 -15 2 C-10.3317845 -1.11214367 -5.46207449 -0.72335581 0 0 Z " fill="#FAAAD6" transform="translate(186,219)"/>
<path d="M0 0 C4.19283779 0.2702415 6.88005971 0.57146596 10 3.69140625 C10.495 3.19640625 10.99 2.70140625 11.5 2.19140625 C15.18629954 -0.02037347 17.73176192 0.3471935 22 0.69140625 C24.51012963 3.20153588 24.29721609 4.15945862 24.3125 7.62890625 C24.32925781 8.50417969 24.34601563 9.37945312 24.36328125 10.28125 C24 12.69140625 24 12.69140625 22.7734375 14.46484375 C20.55771548 15.99730347 18.98569862 16.1851962 16.3125 16.37890625 C15.10013672 16.47751953 15.10013672 16.47751953 13.86328125 16.578125 C13.24839844 16.61550781 12.63351562 16.65289062 12 16.69140625 C11.06109416 19.50812378 10.87721281 21.26711236 10.859375 24.18359375 C10.84003906 25.05371094 10.82070313 25.92382812 10.80078125 26.8203125 C10.76707563 28.64300869 10.74870925 30.46605657 10.74609375 32.2890625 C10.61753162 36.86993407 10.49076093 39.04601086 7.64453125 42.7890625 C5 44.69140625 5 44.69140625 1.9375 45.25390625 C-1.63665177 44.56949421 -2.80003128 43.54321756 -5 40.69140625 C-6.72666262 35.51141839 -6.26500759 29.97302682 -6.29516602 24.55004883 C-6.30667992 23.10789168 -6.32712291 21.66577696 -6.35668945 20.22387695 C-6.39953925 18.13333364 -6.41555746 16.04405391 -6.42578125 13.953125 C-6.44036377 12.70490967 -6.45494629 11.45669434 -6.4699707 10.1706543 C-5.89127109 5.88647343 -4.3954993 1.51953784 0 0 Z " fill="#EDA5D2" transform="translate(350,235.30859375)"/>
<path d="M0 0 C0.94552734 0.16242188 0.94552734 0.16242188 1.91015625 0.328125 C2.57015625 1.318125 3.23015625 2.308125 3.91015625 3.328125 C6.60070905 2.10804556 6.60070905 2.10804556 8.91015625 0.328125 C11.83657643 0.04492305 14.06609847 -0.16203326 16.91015625 0.328125 C19.25481968 2.60173802 19.87985291 4.10899814 19.9609375 7.37109375 C19.78515625 9.515625 19.78515625 9.515625 18.91015625 13.328125 C15.70365059 15.46579544 13.34696026 16.00775495 9.65234375 16.765625 C9.07742188 16.95125 8.5025 17.136875 7.91015625 17.328125 C6.77185444 19.60472862 6.75818741 20.97339347 6.69921875 23.50390625 C6.65667969 24.74624023 6.65667969 24.74624023 6.61328125 26.01367188 C6.56155255 27.75304941 6.51717807 29.49266255 6.48046875 31.23242188 C6.30205634 36.03097224 6.0541351 39.44848607 2.91015625 43.328125 C0.06931984 44.74854321 -1.94461653 44.64264772 -5.08984375 44.328125 C-7.93764994 42.09606069 -8.93982041 40.77819501 -10.08984375 37.328125 C-10.31784464 32.93185336 -10.31812312 28.53327101 -10.33007812 24.13183594 C-10.33977839 21.96770715 -10.37081142 19.80453081 -10.40234375 17.640625 C-10.40887502 16.25781812 -10.41412501 14.87500447 -10.41796875 13.4921875 C-10.4319873 11.61200928 -10.4319873 11.61200928 -10.44628906 9.69384766 C-9.65422544 2.21481405 -7.02798411 0.25509924 0 0 Z " fill="#F5A8D4" transform="translate(387.08984375,235.671875)"/>
<path d="M0 0 C4.29691543 3.61331525 6.42656252 6.64140636 7.5 12.1875 C7.62375 13.734375 7.62375 13.734375 7.75 15.3125 C4.2948078 17.45853064 1.82035271 17.47372867 -2.1875 17.125 C-3.20714844 17.04894531 -4.22679688 16.97289062 -5.27734375 16.89453125 C-10.79291475 15.81460999 -14.77871624 12.65160469 -18.25 8.3125 C-18.94582606 5.57998599 -19.10556317 3.15309098 -19.25 0.3125 C-12.06605744 -2.89461722 -7.30639745 -3.79370637 0 0 Z " fill="#F1A7D6" transform="translate(95.25,244.6875)"/>
<path d="M0 0 C0.7528125 0.07863281 1.505625 0.15726563 2.28125 0.23828125 C4.62887164 0.71359197 6.41514781 1.52661639 8.5 2.6875 C7.88607305 9.13373299 5.61796575 12.89899559 0.6875 17.0625 C-4.95373401 20.06950139 -12.28802902 18.97531333 -18.5 18.6875 C-19.91103215 14.45440355 -18.55916336 12.14245453 -16.875 8.13671875 C-14.50044353 3.90704004 -11.12532855 1.55555218 -6.5625 0.046875 C-4.24724827 -0.35654007 -2.33267076 -0.26761805 0 0 Z " fill="#FBACD6" transform="translate(124.5,242.3125)"/>
<path d="M0 0 C0.33 0 0.66 0 1 0 C1.02578125 1.2065625 1.0515625 2.413125 1.078125 3.65625 C1.13444886 5.27086738 1.1917952 6.88544933 1.25 8.5 C1.26417969 9.29148437 1.27835937 10.08296875 1.29296875 10.8984375 C1.52254394 16.50007214 2.51089318 21.46333628 6 26 C9.45110031 28.10600697 12.76451004 28.56703141 16.75 29.125 C17.92046875 29.29257812 19.0909375 29.46015625 20.296875 29.6328125 C21.18890625 29.75398438 22.0809375 29.87515625 23 30 C23 29.34 23 28.68 23 28 C23.99 28 24.98 28 26 28 C26 26.02 26 24.04 26 22 C25.38511719 22.10699219 24.77023437 22.21398437 24.13671875 22.32421875 C23.32847656 22.44410156 22.52023437 22.56398438 21.6875 22.6875 C20.48673828 22.87892578 20.48673828 22.87892578 19.26171875 23.07421875 C17 23 17 23 15.1875 21.75 C14 20 14 20 14.3125 16.3125 C14.539375 15.219375 14.76625 14.12625 15 13 C15.33 13 15.66 13 16 13 C16.66 14.98 17.32 16.96 18 19 C20.86417332 18.60219815 22.62347144 18.3137738 24.875 16.4375 C28.02543282 14.30632486 30.28884077 14.5361051 34 15 C36.5 16.625 36.5 16.625 38 19 C38 22.44935713 37.44847744 24.3459704 35.5 27.1875 C29.90484199 31.24398956 23.41549412 32.64283262 16.5625 32.41796875 C10.74670978 31.46935663 5.5403256 29.00709093 1.9375 24.3125 C1.628125 23.549375 1.31875 22.78625 1 22 C0.67 21.34 0.34 20.68 0 20 C-0.08372659 18.47851674 -0.10730027 16.95344222 -0.09765625 15.4296875 C-0.09443359 14.53378906 -0.09121094 13.63789063 -0.08789062 12.71484375 C-0.07951172 11.77769531 -0.07113281 10.84054687 -0.0625 9.875 C-0.05798828 8.93011719 -0.05347656 7.98523438 -0.04882812 7.01171875 C-0.03702357 4.67441613 -0.02055759 2.33723939 0 0 Z " fill="#E9A4D2" transform="translate(301,248)"/>
<path d="M0 0 C0.33 0 0.66 0 1 0 C1.33 18.15 1.66 36.3 2 55 C4.64 55.33 7.28 55.66 10 56 C10 55.01 10 54.02 10 53 C10.66 53 11.32 53 12 53 C12.33 42.11 12.66 31.22 13 20 C16 22 16 22 18 25 C18.125 27.6875 18.125 27.6875 18 30 C18.66 30 19.32 30 20 30 C20.20496094 30.71027344 20.40992188 31.42054688 20.62109375 32.15234375 C20.89050781 33.07144531 21.15992188 33.99054688 21.4375 34.9375 C21.70433594 35.85402344 21.97117188 36.77054687 22.24609375 37.71484375 C22.79026051 39.9402493 22.79026051 39.9402493 24 41 C24.04063832 42.66617115 24.042721 44.33388095 24 46 C21.08274448 42.6122194 19.71744176 38.92662445 18.3125 34.75 C18.08755859 34.1003125 17.86261719 33.450625 17.63085938 32.78125 C17.08083773 31.18969801 16.53953212 29.59513844 16 28 C15.98018066 28.6705542 15.96036133 29.3411084 15.93994141 30.03198242 C15.84440285 33.08420161 15.73484055 36.13576341 15.625 39.1875 C15.57859375 40.77014648 15.57859375 40.77014648 15.53125 42.38476562 C15.49257812 43.40634766 15.45390625 44.42792969 15.4140625 45.48046875 C15.36693115 46.88655396 15.36693115 46.88655396 15.31884766 48.32104492 C14.97265265 51.22977216 14.32910595 53.39123152 13 56 C9.48175489 58.34549674 8.14224306 58.57991403 4 58 C1.33740234 56.18017578 1.33740234 56.18017578 -1 53 C-1.7050337 49.22322171 -1.60548785 45.51075727 -1.5234375 41.6796875 C-1.51873444 40.58407501 -1.51403137 39.48846252 -1.50918579 38.35964966 C-1.48785737 34.86412411 -1.43124109 31.37011966 -1.375 27.875 C-1.35849187 25.51433719 -1.34414407 23.15365821 -1.33203125 20.79296875 C-1.29807903 16.47880675 -1.26324088 12.16480816 -1.19287109 7.85107422 C-1.18001068 6.98457245 -1.16715027 6.11807068 -1.15390015 5.22531128 C-1 3 -1 3 0 0 Z " fill="#BD91CB" transform="translate(170,222)"/>
<path d="M0 0 C0.99 0.33 1.98 0.66 3 1 C3.04652964 8.92834458 3.08197329 16.85663123 3.10362434 24.785079 C3.11402058 28.46736443 3.12810285 32.1495558 3.15087891 35.83178711 C3.17275687 39.39147415 3.18459984 42.95107125 3.18975449 46.51082039 C3.19519796 48.51639398 3.21078654 50.52193187 3.22659302 52.52745056 C3.22777928 62.26971813 2.12807959 70.18092087 -2 79 C-3.08828929 75.73513213 -2.89901381 74.63009917 -2.125 71.375 C-1.94195312 70.57835937 -1.75890625 69.78171875 -1.5703125 68.9609375 C-1 67 -1 67 0 66 C0.12363297 64.03712234 0.1779544 62.06984842 0.20532227 60.10327148 C0.22526749 58.84203964 0.24521271 57.5808078 0.26576233 56.28135681 C0.28274795 54.89460373 0.29962671 53.50784934 0.31640625 52.12109375 C0.33696926 50.7100411 0.35796555 49.29899471 0.37937927 47.88795471 C0.43466755 44.1676641 0.48404686 40.44731727 0.53222656 36.72692871 C0.58239242 32.93313575 0.63810408 29.13942477 0.69335938 25.34570312 C0.80102351 17.89720477 0.90244997 10.44863841 1 3 C-0.98 3.33 -2.96 3.66 -5 4 C-2.6875 1.9375 -2.6875 1.9375 0 0 Z " fill="#8C6FA9" transform="translate(151,196)"/>
<path d="M0 0 C2.4511803 1.32496232 3.70059962 2.11346381 4.6015625 4.78125 C5.05656266 7.31497636 5.09635512 9.67701111 5.0625 12.25 C5.05347656 13.14203125 5.04445313 14.0340625 5.03515625 14.953125 C5.02355469 15.62859375 5.01195312 16.3040625 5 17 C6.11375 16.938125 7.2275 16.87625 8.375 16.8125 C10.169375 16.9053125 10.169375 16.9053125 12 17 C14.47666082 20.71499122 14.54886514 22.60907888 14 27 C11.75 29 11.75 29 9 30 C6.6875 29.6875 6.6875 29.6875 5 29 C5.99 29 6.98 29 8 29 C8 28.34 8 27.68 8 27 C8.66 27 9.32 27 10 27 C10 26.34 10 25.68 10 25 C10.66 25 11.32 25 12 25 C11.34 23.02 10.68 21.04 10 19 C7.69 18.67 5.38 18.34 3 18 C2.67 13.38 2.34 8.76 2 4 C-3.3086849 4.58174845 -3.3086849 4.58174845 -8 7 C-8.04346799 8.99952758 -8.039992 11.00039988 -8 13 C-9 15.375 -9 15.375 -10 17 C-10.66 16.67 -11.32 16.34 -12 16 C-11.8858134 14.06183265 -11.75826577 12.12444901 -11.625 10.1875 C-11.55539062 9.10855469 -11.48578125 8.02960938 -11.4140625 6.91796875 C-11 4 -11 4 -9 1 C-5.70952793 -0.09682402 -3.44927034 -0.28157309 0 0 Z " fill="#EBA3D3" transform="translate(283,219)"/>
<path d="M0 0 C0.66 0 1.32 0 2 0 C2.07610425 7.0291449 2.12862273 14.05818342 2.16479492 21.08764648 C2.17987543 23.4786374 2.20034277 25.86960068 2.22631836 28.26049805 C2.26273306 31.69847435 2.27973399 35.13608469 2.29296875 38.57421875 C2.30845261 39.64210129 2.32393646 40.70998383 2.33988953 41.81022644 C2.34200565 51.1552462 2.34200565 51.1552462 -1 55 C-3.64458379 56.32229189 -5.67761301 56.09677194 -8.625 56.0625 C-9.62789062 56.05347656 -10.63078125 56.04445313 -11.6640625 56.03515625 C-12.43492187 56.02355469 -13.20578125 56.01195312 -14 56 C-14 55.67 -14 55.34 -14 55 C-9.05 54.505 -9.05 54.505 -4 54 C-4.33 52.68 -4.66 51.36 -5 50 C-4.34 49.34 -3.68 48.68 -3 48 C-3 48.66 -3 49.32 -3 50 C-2.01 50 -1.02 50 0 50 C0 33.5 0 17 0 0 Z " fill="#CE9FD3" transform="translate(215,224)"/>
<path d="M0 0 C0 20.79 0 41.58 0 63 C-0.33 63 -0.66 63 -1 63 C-1.33 43.2 -1.66 23.4 -2 3 C-3.98 3.66 -5.96 4.32 -8 5 C-16.34334766 6.91719478 -24.4664663 7.24774775 -33 7 C-33 6.34 -33 5.68 -33 5 C-31.78183594 4.96261719 -30.56367187 4.92523438 -29.30859375 4.88671875 C-27.6848671 4.82101883 -26.06117051 4.75457291 -24.4375 4.6875 C-23.63763672 4.66494141 -22.83777344 4.64238281 -22.01367188 4.61914062 C-16.6297137 4.37741189 -12.85008283 3.33387444 -8 1 C-5.26887366 0.43316246 -2.78354375 0 0 0 Z " fill="#DD9DD1" transform="translate(152,199)"/>
<path d="M0 0 C2.32100162 3.48150244 3.67675155 7.10566684 5.125 11 C5.40214844 11.72445312 5.67929688 12.44890625 5.96484375 13.1953125 C7.11095711 16.25537872 8 18.70542099 8 22 C8.99 21.67 9.98 21.34 11 21 C11 23.64 11 26.28 11 29 C10.01 29 9.02 29 8 29 C7.71125 27.865625 7.4225 26.73125 7.125 25.5625 C6.75375 24.386875 6.3825 23.21125 6 22 C5.34 21.67 4.68 21.34 4 21 C3.34 22.32 2.68 23.64 2 25 C0.68 25 -0.64 25 -2 25 C-2.36923077 18.47692308 -2.36923077 18.47692308 -0.5 16.0625 C-0.005 15.711875 0.49 15.36125 1 15 C1.33 15.66 1.66 16.32 2 17 C1.34 11.39 0.68 5.78 0 0 Z " fill="#F9AAD5" transform="translate(193,231)"/>
<path d="M0 0 C1.98 0.66 3.96 1.32 6 2 C6.66 1.34 7.32 0.68 8 0 C10.05859375 -0.3359375 10.05859375 -0.3359375 12.4375 -0.375 C13.21996094 -0.40335938 14.00242188 -0.43171875 14.80859375 -0.4609375 C17 0 17 0 18.61865234 1.52587891 C20.54940955 4.98404318 20.37303167 8.1950023 20.29296875 12.046875 C20.28872391 12.81807678 20.28447906 13.58927856 20.28010559 14.3838501 C20.26335383 16.83959315 20.22570939 19.29450629 20.1875 21.75 C20.17244857 23.41795687 20.15876097 25.08592665 20.14648438 26.75390625 C20.11346194 30.83625578 20.06170484 34.91798732 20 39 C17.73617602 35.60426404 17.7292213 34.29312905 17.65625 30.30078125 C17.62660156 29.17349609 17.59695313 28.04621094 17.56640625 26.88476562 C17.54449219 25.70591797 17.52257812 24.52707031 17.5 23.3125 C17.36013121 15.91179536 17.1737569 9.10853566 15 2 C13.39125 2.4640625 13.39125 2.4640625 11.75 2.9375 C9.89375 3.4634375 9.89375 3.4634375 8 4 C7.236875 4.226875 6.47375 4.45375 5.6875 4.6875 C4 5 4 5 2 4 C2 3.34 2 2.68 2 2 C1.34 2 0.68 2 0 2 C0 1.34 0 0.68 0 0 Z " fill="#DBA0D0" transform="translate(240,236)"/>
<path d="M0 0 C0.99 0.99 1.98 1.98 3 3 C-0.3 2.67 -3.6 2.34 -7 2 C-7.66 11.9 -8.32 21.8 -9 32 C-9.66 32 -10.32 32 -11 32 C-11.11605098 27.41687916 -11.18720362 22.83413551 -11.25 18.25 C-11.28351563 16.94804687 -11.31703125 15.64609375 -11.3515625 14.3046875 C-11.36445313 13.05429688 -11.37734375 11.80390625 -11.390625 10.515625 C-11.41157227 9.36352539 -11.43251953 8.21142578 -11.45410156 7.02441406 C-11 4 -11 4 -9.19824219 1.62011719 C-6.03475214 -0.71139325 -3.82683444 -0.48705166 0 0 Z " fill="#BD8CC3" transform="translate(213,219)"/>
<path d="M0 0 C0.66 0 1.32 0 2 0 C2 4.62 2 9.24 2 14 C3.299375 14.12375 4.59875 14.2475 5.9375 14.375 C8.15234375 14.5859375 8.15234375 14.5859375 10 15 C11.56430248 18.12860495 11.35627284 20.55602925 11 24 C7.41437068 27.58562932 4.62916144 29.15024927 -0.375 29.25 C-1.14585937 29.27578125 -1.91671875 29.3015625 -2.7109375 29.328125 C-5.52030769 28.92541664 -6.88266036 27.83696133 -9 26 C-8.09636719 26.03480469 -7.19273437 26.06960938 -6.26171875 26.10546875 C-4.49248047 26.14607422 -4.49248047 26.14607422 -2.6875 26.1875 C-1.51574219 26.22230469 -0.34398437 26.25710938 0.86328125 26.29296875 C3.98775382 26.3021045 3.98775382 26.3021045 5.79296875 24.48828125 C6.19128906 23.99714844 6.58960938 23.50601562 7 23 C7.66 23 8.32 23 9 23 C8.53146378 20.00594421 8.53146378 20.00594421 7 17 C4.69 16.34 2.38 15.68 0 15 C0 10.05 0 5.1 0 0 Z " fill="#AD8ABF" transform="translate(286,251)"/>
<path d="M0 0 C1.98 0 3.96 0 6 0 C6 0.99 6 1.98 6 3 C6.66 3 7.32 3 8 3 C9.74706142 8.24118425 9.32791716 13.68833136 8 19 C7.01 19 6.02 19 5 19 C5.01160156 18.01257813 5.02320313 17.02515625 5.03515625 16.0078125 C5.04417969 14.72648437 5.05320313 13.44515625 5.0625 12.125 C5.07410156 10.84882813 5.08570313 9.57265625 5.09765625 8.2578125 C5.23176569 5.11335348 5.23176569 5.11335348 4 3 C3.01 2.67 2.02 2.34 1 2 C1 7.61 1 13.22 1 19 C1.99 19.33 2.98 19.66 4 20 C2.68 20.33 1.36 20.66 0 21 C-1.64072259 17.71855481 -1.14274434 14.10210004 -1.125 10.5 C-1.12886719 9.71496094 -1.13273438 8.92992187 -1.13671875 8.12109375 C-1.12665394 2.25330787 -1.12665394 2.25330787 0 0 Z " fill="#D481D1" transform="translate(238,247)"/>
<path d="M0 0 C6.0546875 -0.1953125 6.0546875 -0.1953125 8 0 C10.51012963 2.51012963 10.29721609 3.46805237 10.3125 6.9375 C10.32925781 7.81277344 10.34601563 8.68804687 10.36328125 9.58984375 C10 12 10 12 8.7734375 13.7734375 C6.55771548 15.30589722 4.98569862 15.49378995 2.3125 15.6875 C1.10013672 15.78611328 1.10013672 15.78611328 -0.13671875 15.88671875 C-0.75160156 15.92410156 -1.36648438 15.96148437 -2 16 C-2.9300889 18.7902667 -3.18698769 20.76529542 -3.31640625 23.66796875 C-3.35830078 24.56064453 -3.40019531 25.45332031 -3.44335938 26.37304688 C-3.48267578 27.30181641 -3.52199219 28.23058594 -3.5625 29.1875 C-3.60568359 30.12787109 -3.64886719 31.06824219 -3.69335938 32.03710938 C-3.79938665 34.35792854 -3.90145029 36.67885325 -4 39 C-4.33 39 -4.66 39 -5 39 C-5.02908357 35.58335127 -5.04682691 32.1667345 -5.0625 28.75 C-5.07087891 27.78191406 -5.07925781 26.81382812 -5.08789062 25.81640625 C-5.09111328 24.88183594 -5.09433594 23.94726562 -5.09765625 22.984375 C-5.10289307 22.12553711 -5.10812988 21.26669922 -5.11352539 20.38183594 C-5 18 -5 18 -4 14 C-0.7 14 2.6 14 6 14 C6.96070434 11.11788698 7.10581883 9.30149956 7.0625 6.3125 C7.05347656 5.50425781 7.04445313 4.69601563 7.03515625 3.86328125 C7.02355469 3.24839844 7.01195312 2.63351563 7 2 C4.69 1.67 2.38 1.34 0 1 C0 0.67 0 0.34 0 0 Z " fill="#C595CF" transform="translate(364,236)"/>
<path d="M0 0 C0.33 0 0.66 0 1 0 C1.02578125 1.2065625 1.0515625 2.413125 1.078125 3.65625 C1.13444886 5.27086738 1.1917952 6.88544933 1.25 8.5 C1.26417969 9.29148437 1.27835937 10.08296875 1.29296875 10.8984375 C1.52254394 16.50007214 2.51089318 21.46333628 6 26 C9.6794643 28.27753944 13.52557744 28.63787377 17.75 29.125 C18.44738281 29.21136719 19.14476562 29.29773438 19.86328125 29.38671875 C21.57472332 29.59771846 23.28726629 29.79975501 25 30 C24.67 30.66 24.34 31.32 24 32 C16.2385751 32.74311515 10.46359317 31.48792884 4 27 C1.9375 24.3125 1.9375 24.3125 1 22 C0.67 21.34 0.34 20.68 0 20 C-0.08372659 18.47851674 -0.10730027 16.95344222 -0.09765625 15.4296875 C-0.09443359 14.53378906 -0.09121094 13.63789063 -0.08789062 12.71484375 C-0.07951172 11.77769531 -0.07113281 10.84054687 -0.0625 9.875 C-0.05798828 8.93011719 -0.05347656 7.98523438 -0.04882812 7.01171875 C-0.03702357 4.67441613 -0.02055759 2.33723939 0 0 Z " fill="#A882C8" transform="translate(301,248)"/>
<path d="M0 0 C2 1 2 1 2.62109375 2.734375 C3.04706889 5.28144284 3.09646629 7.66856169 3.0625 10.25 C3.05347656 11.14203125 3.04445313 12.0340625 3.03515625 12.953125 C3.02355469 13.62859375 3.01195312 14.3040625 3 15 C4.11375 14.938125 5.2275 14.87625 6.375 14.8125 C8.169375 14.9053125 8.169375 14.9053125 10 15 C12.47666082 18.71499122 12.54886514 20.60907888 12 25 C9.75 27 9.75 27 7 28 C4.6875 27.6875 4.6875 27.6875 3 27 C3.99 27 4.98 27 6 27 C6 26.34 6 25.68 6 25 C6.66 25 7.32 25 8 25 C8 24.34 8 23.68 8 23 C8.66 23 9.32 23 10 23 C9.34 21.02 8.68 19.04 8 17 C5.69 16.67 3.38 16.34 1 16 C0.67 10.72 0.34 5.44 0 0 Z " fill="#AB87C3" transform="translate(285,221)"/>
<path d="M0 0 C0.99 0 1.98 0 3 0 C3.33 2.31 3.66 4.62 4 7 C4.66 7 5.32 7 6 7 C6.20496094 7.71027344 6.40992188 8.42054688 6.62109375 9.15234375 C6.89050781 10.07144531 7.15992188 10.99054688 7.4375 11.9375 C7.83775391 13.31228516 7.83775391 13.31228516 8.24609375 14.71484375 C8.79026051 16.9402493 8.79026051 16.9402493 10 18 C10.04063832 19.66617115 10.042721 21.33388095 10 23 C7.08255765 19.61200243 5.71721737 15.92396199 4.3125 11.75 C3.549375 9.5225 2.78625 7.295 2 5 C1.67 12.59 1.34 20.18 1 28 C0.67 28 0.34 28 0 28 C0 18.76 0 9.52 0 0 Z " fill="#7155D1" transform="translate(184,245)"/>
<path d="M0 0 C2.13932352 3.48888187 2.25746511 6.28758456 2.265625 10.33984375 C2.26820313 11.56767578 2.27078125 12.79550781 2.2734375 14.06054688 C2.26570313 15.33994141 2.25796875 16.61933594 2.25 17.9375 C2.25773437 19.21302734 2.26546875 20.48855469 2.2734375 21.80273438 C2.27085937 23.03185547 2.26828125 24.26097656 2.265625 25.52734375 C2.26224121 27.20944946 2.26224121 27.20944946 2.25878906 28.92553711 C1.99675975 32.03849482 1.42324988 34.22905161 0 37 C-0.99 37.495 -0.99 37.495 -2 38 C-1.84152588 37.50145508 -1.68305176 37.00291016 -1.51977539 36.48925781 C-0.8044961 33.06371173 -0.76415926 29.65752883 -0.68359375 26.171875 C-0.66281265 25.42286926 -0.64203156 24.67386353 -0.62062073 23.90216064 C-0.55542912 21.51819712 -0.49638217 19.13412688 -0.4375 16.75 C-0.39428584 15.13019746 -0.35067063 13.51040557 -0.30664062 11.890625 C-0.19977904 7.92719168 -0.09842667 3.9636514 0 0 Z " fill="#785DE4" transform="translate(444,240)"/>
<path d="M0 0 C0.99 0.66 1.98 1.32 3 2 C2.67 2.33 2.34 2.66 2 3 C1.89001192 5.32886975 1.84405361 7.66080631 1.82421875 9.9921875 C1.80101941 11.43360834 1.77690202 12.87501463 1.75195312 14.31640625 C1.71682385 16.59661557 1.6874924 18.87629123 1.67407227 21.15673828 C1.6586088 23.35255101 1.618412 25.54678979 1.57421875 27.7421875 C1.55963623 29.0607373 1.54505371 30.37928711 1.5300293 31.73779297 C1 35 1 35 -0.83276367 36.94189453 C-3.6586429 38.32156791 -5.89785464 38.21150991 -9 38 C-9.495 36.515 -9.495 36.515 -10 35 C-7.69 35.33 -5.38 35.66 -3 36 C-3 35.01 -3 34.02 -3 33 C-2.34 33 -1.68 33 -1 33 C-0.67 22.11 -0.34 11.22 0 0 Z " fill="#DBA0D2" transform="translate(183,242)"/>
<path d="M0 0 C0.66 0 1.32 0 2 0 C2 0.66 2 1.32 2 2 C3.32 2 4.64 2 6 2 C5.649375 2.78375 5.29875 3.5675 4.9375 4.375 C4.628125 5.24125 4.31875 6.1075 4 7 C4.33 7.66 4.66 8.32 5 9 C4.01 8.67 3.02 8.34 2 8 C1.67 8.66 1.34 9.32 1 10 C1.99 10.33 2.98 10.66 4 11 C2.68 11.33 1.36 11.66 0 12 C-1.5625 10.375 -1.5625 10.375 -3 8 C-2.77962372 4.32706204 -2.63033454 2.63033454 0 0 Z " fill="#FAA9D3" transform="translate(266,236)"/>
<path d="M0 0 C2 3 2 3 1.63330078 4.86889648 C1.42431152 5.57216064 1.21532227 6.2754248 1 7 C0.90946836 8.69738278 0.86936214 10.39786228 0.8671875 12.09765625 C0.86589844 13.06380859 0.86460937 14.02996094 0.86328125 15.02539062 C0.86714844 16.02763672 0.87101562 17.02988281 0.875 18.0625 C0.87113281 19.06861328 0.86726563 20.07472656 0.86328125 21.11132812 C0.86457031 22.07619141 0.86585938 23.04105469 0.8671875 24.03515625 C0.86831543 24.9156665 0.86944336 25.79617676 0.87060547 26.70336914 C0.90841227 29.16250665 0.90841227 29.16250665 2 32 C1.01 32.495 1.01 32.495 0 33 C-1.63081103 29.40800511 -2.25581748 26.59326875 -2.265625 22.65625 C-2.26820313 21.65722656 -2.27078125 20.65820312 -2.2734375 19.62890625 C-2.26570313 18.59636719 -2.25796875 17.56382812 -2.25 16.5 C-2.25773437 15.46746094 -2.26546875 14.43492187 -2.2734375 13.37109375 C-2.27085937 12.37207031 -2.26828125 11.37304688 -2.265625 10.34375 C-2.26224121 8.98540039 -2.26224121 8.98540039 -2.25878906 7.59960938 C-1.97614356 4.76035535 -1.17473678 2.58745401 0 0 Z " fill="#BF8CC7" transform="translate(410,241)"/>
<path d="M0 0 C0.99 0.33 1.98 0.66 3 1 C2.67 1.66 2.34 2.32 2 3 C1.88419958 4.41237071 1.82152848 5.8293557 1.7890625 7.24609375 C1.76070313 8.08333984 1.73234375 8.92058594 1.703125 9.78320312 C1.65116281 11.54861851 1.60685533 13.31427628 1.5703125 15.08007812 C1.539375 15.91861328 1.5084375 16.75714844 1.4765625 17.62109375 C1.45674316 18.3886499 1.43692383 19.15620605 1.41650391 19.94702148 C0.90549126 22.46584055 -0.0566921 23.37907081 -2 25 C-1.86185777 21.0205267 -1.71320326 17.04151585 -1.5625 13.0625 C-1.52318359 11.92619141 -1.48386719 10.78988281 -1.44335938 9.61914062 C-1.40146484 8.53955078 -1.35957031 7.45996094 -1.31640625 6.34765625 C-1.27974854 5.34742432 -1.24309082 4.34719238 -1.20532227 3.31665039 C-1 1 -1 1 0 0 Z " fill="#BB8DCA" transform="translate(392,252)"/>
<path d="M0 0 C1.98 0.66 3.96 1.32 6 2 C6.66 1.34 7.32 0.68 8 0 C10.1640625 -0.1953125 10.1640625 -0.1953125 12.625 -0.125 C13.85089844 -0.09792969 13.85089844 -0.09792969 15.1015625 -0.0703125 C16.04128906 -0.03550781 16.04128906 -0.03550781 17 0 C17.66 1.32 18.32 2.64 19 4 C18.37351562 3.90460938 17.74703125 3.80921875 17.1015625 3.7109375 C16.28429687 3.60007813 15.46703125 3.48921875 14.625 3.375 C13.40683594 3.20097656 13.40683594 3.20097656 12.1640625 3.0234375 C11.44992187 3.01570312 10.73578125 3.00796875 10 3 C9.34 3.66 8.68 4.32 8 5 C5.5625 5.4375 5.5625 5.4375 3 5 C1.1875 2.5 1.1875 2.5 0 0 Z " fill="#B68FBE" transform="translate(425,236)"/>
<path d="M0 0 C1.58012828 2.81688785 2.26379472 4.93033138 2.37890625 8.15234375 C2.41306641 8.92900391 2.44722656 9.70566406 2.48242188 10.50585938 C2.50884766 11.30830078 2.53527344 12.11074219 2.5625 12.9375 C2.8013786 20.02368848 2.8013786 20.02368848 4 27 C1.49259159 24.89169466 0.12728269 23.71907875 -0.45410156 20.43457031 C-0.4331543 19.49194336 -0.41220703 18.54931641 -0.390625 17.578125 C-0.37773437 16.55332031 -0.36484375 15.52851563 -0.3515625 14.47265625 C-0.31804687 13.40917969 -0.28453125 12.34570312 -0.25 11.25 C-0.23195312 10.17105469 -0.21390625 9.09210938 -0.1953125 7.98046875 C-0.14821415 5.31941212 -0.082456 2.66015746 0 0 Z " fill="#9779AE" transform="translate(169,252)"/>
<path d="M0 0 C0.68707555 2.49064888 1 4.37886292 1 7 C3.1464753 6.88655624 5.29220592 6.75893655 7.4375 6.625 C8.63246094 6.55539062 9.82742187 6.48578125 11.05859375 6.4140625 C12.02925781 6.27742188 12.99992187 6.14078125 14 6 C14.33 5.34 14.66 4.68 15 4 C16.98 4 18.96 4 21 4 C17.6913101 7.63955889 15.32214986 8.92967288 10.328125 9.1953125 C8.96861204 9.18211335 7.60916668 9.15840107 6.25 9.125 C5.55261719 9.11597656 4.85523437 9.10695313 4.13671875 9.09765625 C2.42433042 9.07419888 0.71211996 9.03833104 -1 9 C-2.25541557 5.23375329 -1.37061958 3.62811066 0 0 Z " fill="#C899CE" transform="translate(107,252)"/>
<path d="M0 0 C0 0.33 0 0.66 0 1 C-0.75925781 1.06316406 -1.51851563 1.12632812 -2.30078125 1.19140625 C-7.97022199 1.6292193 -7.97022199 1.6292193 -12.3984375 4.69140625 C-13.32463598 6.82228542 -13.32463598 6.82228542 -14 10 C-14.99 10 -15.98 10 -17 10 C-17.33 8.68 -17.66 7.36 -18 6 C-12.78463731 1.04540544 -7.42310566 -2.27641907 0 0 Z " fill="#B58AD4" transform="translate(321,236)"/>
<path d="M0 0 C0 0.66 0 1.32 0 2 C-3.63 2 -7.26 2 -11 2 C-11 2.66 -11 3.32 -11 4 C-11.969375 4.28875 -12.93875 4.5775 -13.9375 4.875 C-17.10664203 5.64214682 -17.10664203 5.64214682 -18 8 C-18.66 7.67 -19.32 7.34 -20 7 C-13.9119483 0.17400264 -8.76082219 -1.69068498 0 0 Z " fill="#BA8AC8" transform="translate(128,243)"/>
<path d="M0 0 C2 2 2 2 2 5 C5.3 5.66 8.6 6.32 12 7 C10 9 10 9 7.125 9.3125 C4 9 4 9 1.9375 7.375 C0.9784375 6.694375 0.9784375 6.694375 0 6 C-2.73398135 6.70957237 -2.73398135 6.70957237 -5 8 C-4.01 6.02 -3.02 4.04 -2 2 C-1.34 2 -0.68 2 0 2 C0 1.34 0 0.68 0 0 Z " fill="#BD8CCF" transform="translate(430,271)"/>
<path d="M0 0 C0.33 0 0.66 0 1 0 C2.36217703 4.9946491 3.29938543 9.76445505 3.75390625 14.921875 C4.00171802 17.01450769 4.44646861 18.96886003 5 21 C-0.04057612 16.5648562 -1.17602788 9.42698254 -2 3 C-1.34 3 -0.68 3 0 3 C0 2.01 0 1.02 0 0 Z " fill="#C991D0" transform="translate(56,256)"/>
<path d="M0 0 C0.33 0 0.66 0 1 0 C1.3690205 9.41002278 1.3690205 9.41002278 -1 14 C-1.66 14 -2.32 14 -3 14 C-2.938125 14.7425 -2.87625 15.485 -2.8125 16.25 C-3.03094296 19.45383006 -3.90250005 20.64031256 -6 23 C-6.33 22.01 -6.66 21.02 -7 20 C-6.05779992 18.14924985 -5.10939742 16.30131117 -4.125 14.47265625 C-2.03218448 9.87282215 -1.08203273 4.91833057 0 0 Z " fill="#CA91CF" transform="translate(134,251)"/>
<path d="M0 0 C1.98 0.66 3.96 1.32 6 2 C6.66 1.34 7.32 0.68 8 0 C10.1640625 -0.1953125 10.1640625 -0.1953125 12.625 -0.125 C13.85089844 -0.09792969 13.85089844 -0.09792969 15.1015625 -0.0703125 C16.04128906 -0.03550781 16.04128906 -0.03550781 17 0 C17.66 1.32 18.32 2.64 19 4 C18.01 4 17.02 4 16 4 C15.67 3.34 15.34 2.68 15 2 C13.39125 2.4640625 13.39125 2.4640625 11.75 2.9375 C9.89375 3.4634375 9.89375 3.4634375 8 4 C7.236875 4.226875 6.47375 4.45375 5.6875 4.6875 C4 5 4 5 2 4 C2 3.34 2 2.68 2 2 C1.34 2 0.68 2 0 2 C0 1.34 0 0.68 0 0 Z " fill="#C290D9" transform="translate(240,236)"/>
<path d="M0 0 C5 1 5 1 7 3 C5.35 3.66 3.7 4.32 2 5 C1.67 12.26 1.34 19.52 1 27 C0.67 27 0.34 27 0 27 C0 18.09 0 9.18 0 0 Z " fill="#D798D3" transform="translate(55,197)"/>
<path d="M0 0 C0.33 0.66 0.66 1.32 1 2 C1.33 1.34 1.66 0.68 2 0 C2.99 0.33 3.98 0.66 5 1 C4.814375 2.0725 4.62875 3.145 4.4375 4.25 C4.0695432 7.40391546 3.95534657 9.09818492 5 12 C6.32 12.33 7.64 12.66 9 13 C7.25 13.75 7.25 13.75 5 14 C2.8125 12.6875 2.8125 12.6875 1 10 C0.37024952 6.67429294 0.12898096 3.37930116 0 0 Z " fill="#CE94CB" transform="translate(194,265)"/>
<path d="M0 0 C2 3 2 3 2 5 C1.34 5 0.68 5 0 5 C0 14.9 0 24.8 0 35 C-0.33 35 -0.66 35 -1 35 C-1.0246519 30.17619198 -1.04283693 25.35242033 -1.05493164 20.52856445 C-1.05997174 18.88630536 -1.06680378 17.24405077 -1.07543945 15.60180664 C-1.08751926 13.24624521 -1.09323139 10.89074291 -1.09765625 8.53515625 C-1.10281754 7.79660904 -1.10797882 7.05806183 -1.11329651 6.2971344 C-1.1134925 4.53101912 -1.06194719 2.76502854 -1 1 C-0.67 0.67 -0.34 0.34 0 0 Z " fill="#F5A3CC" transform="translate(183,237)"/>
<path d="M0 0 C2.4375 0.375 2.4375 0.375 5 1 C5.33 1.66 5.66 2.32 6 3 C7.65 2.34 9.3 1.68 11 1 C10.125 5.75 10.125 5.75 9 8 C8.34 8 7.68 8 7 8 C7 8.99 7 9.98 7 11 C6.34 11 5.68 11 5 11 C4.855625 9.906875 4.71125 8.81375 4.5625 7.6875 C4.11711896 4.06877013 4.11711896 4.06877013 3 1 C2.01 0.67 1.02 0.34 0 0 Z " fill="#D39AC9" transform="translate(385,236)"/>
<path d="M0 0 C1.60717771 2.41076656 2.61542515 4.28099245 3.625 6.9375 C3.88539062 7.60652344 4.14578125 8.27554687 4.4140625 8.96484375 C5 11 5 11 5 15 C4.401875 14.360625 3.80375 13.72125 3.1875 13.0625 C1.09189663 10.79689611 1.09189663 10.79689611 -2 10 C-1.34 6.7 -0.68 3.4 0 0 Z " fill="#D298C7" transform="translate(75,259)"/>
<path d="M0 0 C0.99 0 1.98 0 3 0 C3.66 0.66 4.32 1.32 5 2 C5.66 2 6.32 2 7 2 C7.66 4.97 8.32 7.94 9 11 C5.43279004 8.32459253 2.58873576 5.64340588 0 2 C0 1.34 0 0.68 0 0 Z " fill="#B081DC" transform="translate(62,279)"/>
<path d="M0 0 C9.405 1.485 9.405 1.485 19 3 C18.67 3.66 18.34 4.32 18 5 C10.75460274 5.53449652 6.27087737 4.71607548 0 1 C0 0.67 0 0.34 0 0 Z " fill="#BA96C0" transform="translate(307,275)"/>
<path d="M0 0 C0.99 0.7115625 0.99 0.7115625 2 1.4375 C1.34 2.0975 0.68 2.7575 0 3.4375 C-0.886875 3.128125 -1.77375 2.81875 -2.6875 2.5 C-5.85453569 1.40995843 -5.85453569 1.40995843 -8.625 0.9375 C-11.02937286 0.43131624 -12.86097867 -0.37415482 -15 -1.5625 C-9.91432429 -3.46962839 -4.65332311 -2.42360579 0 0 Z " fill="#D08BCD" transform="translate(95,244.5625)"/>
<path d="M0 0 C2.08432499 3.12648749 3.28558611 6.05730868 4.625 9.5625 C5.07101563 10.71878906 5.51703125 11.87507812 5.9765625 13.06640625 C7 16 7 16 7 18 C6.34 18 5.68 18 5 18 C2.39968979 15.1704433 1.48078496 12.74696527 0.8125 9 C0.65394531 8.154375 0.49539062 7.30875 0.33203125 6.4375 C0 4 0 4 0 0 Z " fill="#BC92C1" transform="translate(193,231)"/>
<path d="M0 0 C1.98 0 3.96 0 6 0 C6 0.99 6 1.98 6 3 C5.01 2.67 4.02 2.34 3 2 C2.67 6.95 2.34 11.9 2 17 C1.67 17 1.34 17 1 17 C0.93941406 16.25234375 0.87882812 15.5046875 0.81640625 14.734375 C0.73261719 13.74953125 0.64882813 12.7646875 0.5625 11.75 C0.48128906 10.77546875 0.40007812 9.8009375 0.31640625 8.796875 C0.07788643 6.07014294 0.07788643 6.07014294 -0.59765625 3.765625 C-1 2 -1 2 0 0 Z " fill="#AB7CBA" transform="translate(422,248)"/>
<path d="M0 0 C-1.78614318 1.03046722 -3.57910018 2.04913236 -5.375 3.0625 C-6.87160156 3.91521484 -6.87160156 3.91521484 -8.3984375 4.78515625 C-9.25695312 5.18605469 -10.11546875 5.58695312 -11 6 C-11.66 5.67 -12.32 5.34 -13 5 C-11.9375 2.5625 -11.9375 2.5625 -10 0 C-6.10664693 -0.97333827 -3.82146654 -1.27382218 0 0 Z " fill="#CD9ACD" transform="translate(124,300)"/>
<path d="M0 0 C0.33 0.66 0.66 1.32 1 2 C1.66 2.33 2.32 2.66 3 3 C3 4.32 3 5.64 3 7 C0.35541621 8.32229189 -1.67761301 8.09677194 -4.625 8.0625 C-5.62789062 8.05347656 -6.63078125 8.04445313 -7.6640625 8.03515625 C-8.43492187 8.02355469 -9.20578125 8.01195312 -10 8 C-10 7.67 -10 7.34 -10 7 C-6.7 6.67 -3.4 6.34 0 6 C-0.33 4.68 -0.66 3.36 -1 2 C-0.67 1.34 -0.34 0.68 0 0 Z " fill="#BF86CB" transform="translate(211,272)"/>
<path d="M0 0 C1.32 0.33 2.64 0.66 4 1 C3.48964169 5.3890815 2.47785723 8.33708062 0 12 C-0.66 11.67 -1.32 11.34 -2 11 C-2 10.01 -2 9.02 -2 8 C-1.34 8 -0.68 8 0 8 C0 5.36 0 2.72 0 0 Z " fill="#B98CCF" transform="translate(129,244)"/>
<path d="M0 0 C-1.5625 2 -1.5625 2 -4 4 C-7.625 4.375 -7.625 4.375 -11 4 C-11.66 3.34 -12.32 2.68 -13 2 C-4.57142857 -0.28571429 -4.57142857 -0.28571429 0 0 Z " fill="#B993CA" transform="translate(244,276)"/>
<path d="M0 0 C0.33 0 0.66 0 1 0 C1.08075665 2.29109597 1.13907731 4.58299267 1.1875 6.875 C1.22230469 8.15117187 1.25710938 9.42734375 1.29296875 10.7421875 C1.19628906 11.81726563 1.09960938 12.89234375 1 14 C-2.22791555 16.1519437 -3.28400809 16.20086443 -7 16 C-5.68 15.67 -4.36 15.34 -3 15 C-3 14.34 -3 13.68 -3 13 C-2.34 13 -1.68 13 -1 13 C-0.67 8.71 -0.34 4.42 0 0 Z " fill="#B08ACB" transform="translate(338,245)"/>
<path d="M0 0 C2.375 -0.1875 2.375 -0.1875 5 0 C7 3 7 3 7 6 C7.99 6.33 8.98 6.66 10 7 C9.67 8.32 9.34 9.64 9 11 C7.49703315 9.35687553 5.99769719 7.71042916 4.5 6.0625 C3.6646875 5.14597656 2.829375 4.22945312 1.96875 3.28515625 C0 1 0 1 0 0 Z " fill="#AF84CD" transform="translate(120,220)"/>
<path d="M0 0 C1.175625 0.99 1.175625 0.99 2.375 2 C4.71512812 4.20201441 4.71512812 4.20201441 7 4 C8.32 4 9.64 4 11 4 C11 4.66 11 5.32 11 6 C8.15916359 7.42041821 6.14522722 7.31452272 3 7 C0.625 5 0.625 5 -1 3 C-0.67 2.01 -0.34 1.02 0 0 Z " fill="#A681C0" transform="translate(379,273)"/>
<path d="M0 0 C0.66 1.32 1.32 2.64 2 4 C-0.55068845 6.35448165 -1.71017358 6.98327924 -5.25 7.1875 C-6.1575 7.125625 -7.065 7.06375 -8 7 C-8.33 6.01 -8.66 5.02 -9 4 C-6.69 4.33 -4.38 4.66 -2 5 C-2 4.01 -2 3.02 -2 2 C-1.34 2 -0.68 2 0 2 C0 1.34 0 0.68 0 0 Z " fill="#B48CC8" transform="translate(182,273)"/>
<path d="M0 0 C0.33 0 0.66 0 1 0 C1.51137226 6.90352555 -0.13035626 11.74827614 -3 18 C-4.93736428 12.18790717 -2.00670039 5.59009395 0 0 Z " fill="#C58DD4" transform="translate(152,257)"/>
<path d="M0 0 C0.66 0 1.32 0 2 0 C2 0.66 2 1.32 2 2 C1.01 2.495 1.01 2.495 0 3 C0.33 5.31 0.66 7.62 1 10 C1.99 10.33 2.98 10.66 4 11 C2.68 11.33 1.36 11.66 0 12 C-1.5625 10.375 -1.5625 10.375 -3 8 C-2.77962372 4.32706204 -2.63033454 2.63033454 0 0 Z " fill="#AC85CD" transform="translate(266,236)"/>
<path d="M0 0 C0.33 0.99 0.66 1.98 1 3 C1.99 2.67 2.98 2.34 4 2 C4 4.64 4 7.28 4 10 C3.01 10 2.02 10 1 10 C0.67 6.7 0.34 3.4 0 0 Z " fill="#E397C0" transform="translate(200,250)"/>
<path d="M0 0 C5.26500337 -0.43155765 5.26500337 -0.43155765 8 0 C10.41823431 2.64494378 10.95036419 4.2554628 11.1875 7.8125 C11.125625 8.534375 11.06375 9.25625 11 10 C10.71125 9.360625 10.4225 8.72125 10.125 8.0625 C9.17176549 5.84793921 9.17176549 5.84793921 7 5 C7 4.01 7 3.02 7 2 C4.69 1.67 2.38 1.34 0 1 C0 0.67 0 0.34 0 0 Z " fill="#CA9ACE" transform="translate(396,236)"/>
<path d="M0 0 C6.0546875 -0.1953125 6.0546875 -0.1953125 8 0 C10 2 10 2 10.1953125 4.3828125 C10.17210937 5.28773438 10.14890625 6.19265625 10.125 7.125 C10.10695313 8.03507813 10.08890625 8.94515625 10.0703125 9.8828125 C10.04710937 10.58148438 10.02390625 11.28015625 10 12 C9.67 12 9.34 12 9 12 C8.855625 10.906875 8.71125 9.81375 8.5625 8.6875 C8.11711896 5.06877013 8.11711896 5.06877013 7 2 C4.69 1.67 2.38 1.34 0 1 C0 0.67 0 0.34 0 0 Z " fill="#AC86C9" transform="translate(364,236)"/>
<path d="M0 0 C-1.57118065 4.71354196 -4.93818614 7.29212409 -9 10 C-9 8.68 -9 7.36 -9 6 C-8.34 6 -7.68 6 -7 6 C-6.71125 5.195625 -6.4225 4.39125 -6.125 3.5625 C-4.57187581 0.02482823 -3.82399698 0 0 0 Z " fill="#B28CD4" transform="translate(87,220)"/>
<path d="M0 0 C0.66 0.66 1.32 1.32 2 2 C-1.06890187 3.53445094 -3.70094266 2.54984289 -7 2 C-7.33 2.99 -7.66 3.98 -8 5 C-8.66 5 -9.32 5 -10 5 C-10.33 5.66 -10.66 6.32 -11 7 C-10.75 4.625 -10.75 4.625 -10 2 C-6.90439167 -0.40769537 -3.80962278 -0.33127155 0 0 Z " fill="#AC7EC1" transform="translate(283,219)"/>
<path d="M0 0 C0 0.66 0 1.32 0 2 C-3.00440021 4.00293347 -4.70993945 4.49271626 -8.1875 5.125 C-9.08855469 5.29257812 -9.98960938 5.46015625 -10.91796875 5.6328125 C-11.60503906 5.75398438 -12.29210937 5.87515625 -13 6 C-13 5.01 -13 4.02 -13 3 C-11.2092015 2.49689942 -9.41733089 1.99761372 -7.625 1.5 C-6.62726563 1.2215625 -5.62953125 0.943125 -4.6015625 0.65625 C-2 0 -2 0 0 0 Z " fill="#B789CE" transform="translate(115,285)"/>
<path d="M0 0 C0.99 0 1.98 0 3 0 C3 0.66 3 1.32 3 2 C2.34 2 1.68 2 1 2 C1.28151087 3.31471568 1.57553339 4.62675767 1.875 5.9375 C2.03742188 6.66839844 2.19984375 7.39929688 2.3671875 8.15234375 C2.82961523 10.20700294 2.82961523 10.20700294 5 11 C4.67 11.66 4.34 12.32 4 13 C0.82925137 10.54522686 -0.29522817 8.70601907 -0.8125 4.8125 C-0.874375 3.554375 -0.93625 2.29625 -1 1 C-0.67 0.67 -0.34 0.34 0 0 Z " fill="#C090CA" transform="translate(77,244)"/>
<path d="M0 0 C5.97031739 0.29123499 8.894534 3.02814384 13 7 C12.67 7.66 12.34 8.32 12 9 C10.0625 8.25 10.0625 8.25 8 7 C7.25 4.875 7.25 4.875 7 3 C5.824375 2.814375 5.824375 2.814375 4.625 2.625 C2 2 2 2 0 0 Z " fill="#B991C2" transform="translate(325,236)"/>
<path d="M0 0 C0 5.94 0 11.88 0 18 C-0.33 18 -0.66 18 -1 18 C-1 13.05 -1 8.1 -1 3 C-2.98 3.33 -4.96 3.66 -7 4 C-2.25 0 -2.25 0 0 0 Z " fill="#BF98D9" transform="translate(153,196)"/>
<path d="M0 0 C3.4375 0.8125 3.4375 0.8125 7 2 C7.33 2.99 7.66 3.98 8 5 C7.34 5 6.68 5 6 5 C5.67 5.66 5.34 6.32 5 7 C4.67 6.01 4.34 5.02 4 4 C2.68 4 1.36 4 0 4 C0 2.68 0 1.36 0 0 Z " fill="#E29FD2" transform="translate(92,246)"/>
<path d="M0 0 C0.66 0 1.32 0 2 0 C2.66 0.66 3.32 1.32 4 2 C5.32 1.34 6.64 0.68 8 0 C7.34 1.65 6.68 3.3 6 5 C3.69 5 1.38 5 -1 5 C-0.67 3.35 -0.34 1.7 0 0 Z " fill="#B186BA" transform="translate(356,237)"/>
<path d="M0 0 C0.66 0 1.32 0 2 0 C1.67 1.32 1.34 2.64 1 4 C-2.3 4.66 -5.6 5.32 -9 6 C-9 5.34 -9 4.68 -9 4 C-6.03 3.34 -3.06 2.68 0 2 C0 1.34 0 0.68 0 0 Z " fill="#C392D2" transform="translate(404,246)"/>
<path d="M0 0 C-0.66 1.98 -1.32 3.96 -2 6 C-2.66 6 -3.32 6 -4 6 C-4 8.64 -4 11.28 -4 14 C-4.33 14 -4.66 14 -5 14 C-5.08114106 12.22992286 -5.13925505 10.45877902 -5.1875 8.6875 C-5.22230469 7.70136719 -5.25710938 6.71523437 -5.29296875 5.69921875 C-5 3 -5 3 -3.61328125 1.14453125 C-2 0 -2 0 0 0 Z " fill="#D099CD" transform="translate(383,236)"/>
<path d="M0 0 C3.5 0.375 3.5 0.375 6.5 3.375 C2.21 3.375 -2.08 3.375 -6.5 3.375 C-3.5 0.375 -3.5 0.375 0 0 Z " fill="#BB7AD4" transform="translate(331.5,262.625)"/>
<path d="M0 0 C1.875 0.3125 1.875 0.3125 4 1 C4.66 1.99 5.32 2.98 6 4 C5.113125 3.95875 4.22625 3.9175 3.3125 3.875 C0.02722987 3.99897246 -2.05449295 4.61387904 -5 6 C-3.35 4.02 -1.7 2.04 0 0 Z " fill="#A886D2" transform="translate(102,194)"/>
<path d="M0 0 C1.32 0 2.64 0 4 0 C4 0.99 4 1.98 4 3 C5.32 3 6.64 3 8 3 C8 3.66 8 4.32 8 5 C9.98 5 11.96 5 14 5 C14 5.33 14 5.66 14 6 C8.29964499 6.4560284 5.45215753 5.60412752 1 2 C0.67 1.34 0.34 0.68 0 0 Z " fill="#A582BA" transform="translate(411,274)"/>
<path d="M0 0 C0.66 0 1.32 0 2 0 C1.09276387 4.68738665 0.0452733 9.34193744 -1 14 C-1.33 14 -1.66 14 -2 14 C-2 10.37 -2 6.74 -2 3 C-1.34 3 -0.68 3 0 3 C0 2.01 0 1.02 0 0 Z " fill="#B288C4" transform="translate(75,232)"/>
<path d="M0 0 C-0.25 1.875 -0.25 1.875 -1 4 C-2.8125 5.3125 -2.8125 5.3125 -5 6 C-7.25 5.625 -7.25 5.625 -9 5 C-8.01 5 -7.02 5 -6 5 C-6 4.34 -6 3.68 -6 3 C-5.34 3 -4.68 3 -4 3 C-4 2.34 -4 1.68 -4 1 C-2 0 -2 0 0 0 Z " fill="#AE80CB" transform="translate(297,243)"/>
<path d="M0 0 C3.44216672 2.6598561 3.99504674 5.90288286 5 10 C4.34 10.66 3.68 11.32 3 12 C2.34 10.02 1.68 8.04 1 6 C0.67 6 0.34 6 0 6 C0 4.02 0 2.04 0 0 Z " fill="#C496CE" transform="translate(188,221)"/>
<path d="M0 0 C0 0.66 0 1.32 0 2 C-8.57142857 2.28571429 -8.57142857 2.28571429 -12 0 C-7.91556885 -1.53166168 -4.20544343 -0.63081652 0 0 Z " fill="#C783D2" transform="translate(128,243)"/>
<path d="M0 0 C2.475 0.99 2.475 0.99 5 2 C5 2.66 5 3.32 5 4 C6.65 3.01 8.3 2.02 10 1 C9.34 2.32 8.68 3.64 8 5 C5.6875 5.3125 5.6875 5.3125 3 5 C1.1875 2.5 1.1875 2.5 0 0 Z " fill="#C093D2" transform="translate(425,236)"/>
<path d="M0 0 C7.38461538 -0.49230769 7.38461538 -0.49230769 10.5 2 C10.995 2.66 11.49 3.32 12 4 C10 5 10 5 7.6171875 4.22265625 C6.71226563 3.83980469 5.80734375 3.45695313 4.875 3.0625 C3.50988281 2.49208984 3.50988281 2.49208984 2.1171875 1.91015625 C1.41851562 1.60980469 0.71984375 1.30945313 0 1 C0 0.67 0 0.34 0 0 Z " fill="#BB8FCE" transform="translate(108,215)"/>
<path d="M0 0 C2 2 2 2 2 4 C-1 5 -1 5 -4.1875 3.5625 C-5.115625 3.046875 -6.04375 2.53125 -7 2 C-7 1.67 -7 1.34 -7 1 C-3.625 0.375 -3.625 0.375 0 0 Z " fill="#D69CCD" transform="translate(92,299)"/>
<path d="M0 0 C0.99 0.33 1.98 0.66 3 1 C0.03 4.96 0.03 4.96 -3 9 C-3.33 7.68 -3.66 6.36 -4 5 C-3.34 5 -2.68 5 -2 5 C-2 4.34 -2 3.68 -2 3 C-1.34 3 -0.68 3 0 3 C0 2.01 0 1.02 0 0 Z " fill="#B088C7" transform="translate(145,276)"/>
<path d="M0 0 C0.66 0 1.32 0 2 0 C2 0.99 2 1.98 2 3 C2.99 3.33 3.98 3.66 5 4 C-0.75 5.125 -0.75 5.125 -3 4 C-3 3.34 -3 2.68 -3 2 C-2.01 2 -1.02 2 0 2 C0 1.34 0 0.68 0 0 Z " fill="#D697CE" transform="translate(327,274)"/>
<path d="M0 0 C0.33 0.66 0.66 1.32 1 2 C-0.32 3.32 -1.64 4.64 -3 6 C-3.99 5.67 -4.98 5.34 -6 5 C-5.67 4.01 -5.34 3.02 -5 2 C-2.4375 0.8125 -2.4375 0.8125 0 0 Z " fill="#F1ABDF" transform="translate(244,265)"/>
<path d="M0 0 C0.33 0.66 0.66 1.32 1 2 C-4.19548425 4.20808081 -7.58264203 3.93402724 -13 3 C-13 2.67 -13 2.34 -13 2 C-8.71 1.34 -4.42 0.68 0 0 Z " fill="#D9A7D2" transform="translate(100,258)"/>
<path d="M0 0 C0.66 0.33 1.32 0.66 2 1 C0.515 3.475 0.515 3.475 -1 6 C-2.65 5.67 -4.3 5.34 -6 5 C-2.25 1.125 -2.25 1.125 0 0 Z " fill="#C393C3" transform="translate(417,236)"/>
<path d="M0 0 C0.94875 0.350625 1.8975 0.70125 2.875 1.0625 C5.87060172 2.35026777 5.87060172 2.35026777 8 1 C7.67 2.32 7.34 3.64 7 5 C5.35 4.67 3.7 4.34 2 4 C2 3.34 2 2.68 2 2 C1.34 2 0.68 2 0 2 C0 1.34 0 0.68 0 0 Z " fill="#C496C7" transform="translate(240,236)"/>
<path d="M0 0 C0.33 0 0.66 0 1 0 C1.268125 0.94875 1.53625 1.8975 1.8125 2.875 C2.74986588 6.25267273 2.74986588 6.25267273 6 8 C3.69 7.67 1.38 7.34 -1 7 C-0.67 4.69 -0.34 2.38 0 0 Z " fill="#B287C6" transform="translate(316,261)"/>
<path d="M0 0 C1.98 0 3.96 0 6 0 C6 1.65 6 3.3 6 5 C4.35 4.01 2.7 3.02 1 2 C0.67 2.99 0.34 3.98 0 5 C0 3.35 0 1.7 0 0 Z " fill="#BA8ECA" transform="translate(238,247)"/>
<path d="M0 0 C6.52307692 -0.36923077 6.52307692 -0.36923077 8.9375 1.5 C9.288125 1.995 9.63875 2.49 10 3 C4.58461538 3.36923077 4.58461538 3.36923077 1.625 1.5 C1.08875 1.005 0.5525 0.51 0 0 Z " fill="#BC91D4" transform="translate(206,219)"/>
<path d="M0 0 C0.66 0 1.32 0 2 0 C2 1.98 2 3.96 2 6 C0.68 6 -0.64 6 -2 6 C-1.125 1.125 -1.125 1.125 0 0 Z " fill="#C395C2" transform="translate(316,247)"/>
<path d="M0 0 C0.33 0 0.66 0 1 0 C1.36923077 5.41538462 1.36923077 5.41538462 -0.5 8.375 C-0.995 8.91125 -1.49 9.4475 -2 10 C-3.39195915 5.82412255 -1.82323219 3.86525224 0 0 Z " fill="#AA82C6" transform="translate(130,264)"/>
<path d="M0 0 C0.99 0.33 1.98 0.66 3 1 C0.60490662 3.89932357 -1.31245243 4.50168276 -5 5 C-3.35 3.35 -1.7 1.7 0 0 Z " fill="#A986C7" transform="translate(231,236)"/>
</svg>
